<?xml version="1.0" encoding="utf-8"?>
<!-- Generator: Adobe Illustrator 15.0.0, SVG Export Plug-In . SVG Version: 6.00 Build 0)  -->
<!DOCTYPE svg PUBLIC "-//W3C//DTD SVG 1.1//EN" "http://www.w3.org/Graphics/SVG/1.1/DTD/svg11.dtd">
<svg version="1.1" id="Layer_1" xmlns="http://www.w3.org/2000/svg" xmlns:xlink="http://www.w3.org/1999/xlink" x="0px" y="0px"
	 width="936px" height="305.264px" viewBox="0 0 936 305.264" enable-background="new 0 0 936 305.264" xml:space="preserve">
<g>
	<g>
		<path fill="#FFFFFF" d="M158.4,165.425c0,13.228,5.78,16.858,14.87,16.858c9.082,0,14.87-3.631,14.87-16.858v-7.923h22.795v4.957
			c0,29.408-15.531,39.978-37.665,39.978c-22.145,0-37.677-10.569-37.677-39.978v-42.621c0-29.415,15.533-39.983,37.677-39.983
			c22.134,0,37.665,10.569,37.665,39.983v0.323H188.14v-3.303c0-13.223-5.788-16.856-14.87-16.856c-9.09,0-14.87,3.633-14.87,16.856
			V165.425z"/>
		<path fill="#FFFFFF" d="M232.071,119.838c0-29.415,15.531-39.983,37.67-39.983c22.137,0,37.672,10.569,37.672,39.983v42.621
			c0,29.408-15.535,39.978-37.672,39.978c-22.139,0-37.67-10.569-37.67-39.978V119.838z M254.873,165.425
			c0,13.228,5.788,16.858,14.868,16.858c9.085,0,14.875-3.631,14.875-16.858v-48.567c0-13.223-5.79-16.856-14.875-16.856
			c-9.08,0-14.868,3.633-14.868,16.856V165.425z"/>
		<path fill="#FFFFFF" d="M330.189,81.502h31.719c26.1,0,40.645,11.236,41.63,41.301v36.681
			c-0.985,30.066-15.53,41.301-41.63,41.301h-31.719V81.502z M352.988,180.631h7.93c12.547,0,19.824-5.951,19.824-23.795V125.45
			c0-16.849-5.617-23.79-19.824-23.79h-7.93V180.631z"/>
		<path fill="#FFFFFF" d="M426.001,200.784V81.502h62.447v20.158h-39.647v27.419h30.234v20.157h-30.234v31.395h41.305v20.153
			H426.001z"/>
		<path fill="#FFFFFF" d="M512.795,200.784V81.502h24.938l31.732,70.714h0.332V81.502h20.812v119.282h-21.811l-34.851-76.986h-0.336
			v76.986H512.795z"/>
		<path fill="#FFFFFF" d="M610.589,81.502h22.478l20.975,85.248h0.332l20.815-85.248h22.301l-30.394,119.282h-25.941L610.589,81.502
			z"/>
		<path fill="#FFFFFF" d="M757.248,129.581l19.337-48.079h24.274l-32.545,71.044v48.238H745.52v-48.238l-32.555-71.044h24.288
			L757.248,129.581z"/>
	</g>
	<rect x="425.718" y="220.198" fill="#00FF8C" width="64.498" height="20.119"/>
</g>
</svg>
