<?xml version="1.0" encoding="utf-8"?>
<!-- Generator: Adobe Illustrator 15.0.0, SVG Export Plug-In . SVG Version: 6.00 Build 0)  -->
<!DOCTYPE svg PUBLIC "-//W3C//DTD SVG 1.1//EN" "http://www.w3.org/Graphics/SVG/1.1/DTD/svg11.dtd">
<svg version="1.1" id="Layer_1" xmlns="http://www.w3.org/2000/svg" xmlns:xlink="http://www.w3.org/1999/xlink" x="0px" y="0px"
	 width="307.895px" height="305.264px" viewBox="0 0 307.895 305.264" enable-background="new 0 0 307.895 305.264"
	 xml:space="preserve">
<g>
	<g>
		<path fill="#00FF8C" d="M256.56,138.854h-21.675h-16.549h-21.688c0.712,3.189,1.162,6.487,1.162,9.898
			c0,3.414-0.45,6.709-1.162,9.897h21.688h16.549h21.675c0.298-3.258,0.505-6.56,0.505-9.897
			C257.064,145.414,256.857,142.113,256.56,138.854z"/>
	</g>
	<g>
		<path d="M152.677,82.269c-36.65,0-66.476,29.825-66.476,66.483c0,36.661,29.825,66.487,66.476,66.487
			c28.732,0,53.232-18.348,62.484-43.926h-23.349v-0.502c-7.737,13.713-22.271,23.088-39.136,23.088
			c-24.932,0-45.139-20.227-45.139-45.147c0-24.915,20.207-45.132,45.139-45.132c16.688,0,31.086,9.157,38.889,22.637h23.633
			C205.946,100.642,181.431,82.269,152.677,82.269z"/>
		<path d="M152.677,231.61c-45.691,0-82.854-37.162-82.854-82.858c0-45.691,37.162-82.862,82.854-82.862
			c37.871,0,69.785,25.586,79.629,60.367h22.274c-10.306-46.821-51.983-81.892-101.903-81.892
			c-57.645,0-104.379,46.749-104.379,104.387c0,57.641,46.734,104.368,104.379,104.368c49.902,0,91.565-35.033,101.885-81.807
			h-22.273C222.426,206.054,190.53,231.61,152.677,231.61z"/>
	</g>
</g>
</svg>
