<svg id="Layer_1" data-name="Layer 1" xmlns="http://www.w3.org/2000/svg" viewBox="0 0 225 37.36"><defs><style>.cls-1{fill:#fff;}</style></defs><title>Website Artwork</title><path class="cls-1" d="M149.48,4088a9.86,9.86,0,0,0-.85-2.21,6.13,6.13,0,0,0-1.39-1.74,6.22,6.22,0,0,0-2-1.14,7.91,7.91,0,0,0-2.65-.41,7.76,7.76,0,0,0-3.82.89,7.49,7.49,0,0,0-2.62,2.38,10.74,10.74,0,0,0-1.49,3.39,15.74,15.74,0,0,0,0,7.75,10.73,10.73,0,0,0,1.49,3.39,7.48,7.48,0,0,0,2.62,2.38,7.75,7.75,0,0,0,3.82.89,6.88,6.88,0,0,0,2.87-.56,6.39,6.39,0,0,0,2.13-1.55,7.3,7.3,0,0,0,1.39-2.31,11.07,11.07,0,0,0,.66-2.83h4.73a13.12,13.12,0,0,1-1.07,4.53,11.12,11.12,0,0,1-2.46,3.55,10.87,10.87,0,0,1-3.64,2.31,12.62,12.62,0,0,1-4.61.81,13.05,13.05,0,0,1-5.56-1.14,12.22,12.22,0,0,1-4.17-3.12,13.93,13.93,0,0,1-2.62-4.61,17.67,17.67,0,0,1,0-11.2,13.94,13.94,0,0,1,2.62-4.61,12.45,12.45,0,0,1,4.17-3.14,12.86,12.86,0,0,1,5.56-1.16,14.65,14.65,0,0,1,4.38.64,11.32,11.32,0,0,1,3.62,1.86,9.67,9.67,0,0,1,2.54,3,10.33,10.33,0,0,1,1.2,4h-4.84Z" transform="translate(-50 -4077.48)"/><path class="cls-1" d="M165.74,4107.44a10.91,10.91,0,0,1-4.28-.79,9.12,9.12,0,0,1-3.18-2.19,9.35,9.35,0,0,1-2-3.33,13.62,13.62,0,0,1,0-8.49,9.36,9.36,0,0,1,2-3.33,9.13,9.13,0,0,1,3.18-2.19,11.94,11.94,0,0,1,8.56,0,9.14,9.14,0,0,1,3.18,2.19,9.37,9.37,0,0,1,2,3.33,13.61,13.61,0,0,1,0,8.49,9.36,9.36,0,0,1-2,3.33,9.13,9.13,0,0,1-3.18,2.19A10.92,10.92,0,0,1,165.74,4107.44Zm0-3.49a5.07,5.07,0,0,0,2.56-.62,5.39,5.39,0,0,0,1.78-1.63,7.11,7.11,0,0,0,1-2.27,10.18,10.18,0,0,0,0-5.13,6.86,6.86,0,0,0-1-2.27,5.48,5.48,0,0,0-1.78-1.61,5.59,5.59,0,0,0-5.12,0,5.48,5.48,0,0,0-1.78,1.61,6.85,6.85,0,0,0-1,2.27,10.16,10.16,0,0,0,0,5.13,7.09,7.09,0,0,0,1,2.27,5.38,5.38,0,0,0,1.78,1.63A5.07,5.07,0,0,0,165.74,4104Z" transform="translate(-50 -4077.48)"/><path class="cls-1" d="M196.57,4106.9h-4.18v-2.71h-0.08a5.25,5.25,0,0,1-2.6,2.5,8.8,8.8,0,0,1-3.6.76,9.57,9.57,0,0,1-4.13-.83,8.22,8.22,0,0,1-2.93-2.27,9.7,9.7,0,0,1-1.74-3.39,14.69,14.69,0,0,1-.58-4.2,13.43,13.43,0,0,1,.74-4.69,9.38,9.38,0,0,1,2-3.25,7.57,7.57,0,0,1,2.79-1.88,8.88,8.88,0,0,1,3.2-.6,10.69,10.69,0,0,1,1.9.17,8.39,8.39,0,0,1,1.86.56,7.34,7.34,0,0,1,1.65,1,5.48,5.48,0,0,1,1.26,1.41h0.08v-10.23h4.42v27.67Zm-15.42-9.8a9.75,9.75,0,0,0,.33,2.52,6.89,6.89,0,0,0,1,2.21,5.09,5.09,0,0,0,1.72,1.55,5,5,0,0,0,2.48.58,5,5,0,0,0,2.54-.62,5.26,5.26,0,0,0,1.74-1.63,7.36,7.36,0,0,0,1-2.27,10.16,10.16,0,0,0,.33-2.58,8.1,8.1,0,0,0-1.49-5.19,4.92,4.92,0,0,0-4-1.86,5,5,0,0,0-2.62.64,5.37,5.37,0,0,0-1.74,1.67,6.92,6.92,0,0,0-1,2.33A12.11,12.11,0,0,0,181.15,4097.1Z" transform="translate(-50 -4077.48)"/><path class="cls-1" d="M201.79,4098a7.68,7.68,0,0,0,.33,2.25,5.52,5.52,0,0,0,1,1.9,4.75,4.75,0,0,0,1.67,1.3,5.49,5.49,0,0,0,2.4.48,5.3,5.3,0,0,0,3.12-.83,4.92,4.92,0,0,0,1.76-2.5h4.18a8.31,8.31,0,0,1-3.25,5.06,8.87,8.87,0,0,1-2.69,1.32,10.86,10.86,0,0,1-3.12.45,10.61,10.61,0,0,1-4.18-.78,8.64,8.64,0,0,1-3.08-2.17,9.2,9.2,0,0,1-1.9-3.33,13.53,13.53,0,0,1-.64-4.26,12,12,0,0,1,.68-4,10.35,10.35,0,0,1,1.94-3.37,9.09,9.09,0,0,1,7.07-3.16,9,9,0,0,1,4.24,1,9.32,9.32,0,0,1,3.12,2.62,10.59,10.59,0,0,1,1.8,3.74,11.48,11.48,0,0,1,.29,4.36H201.79Zm10.31-2.91a7.15,7.15,0,0,0-.45-2,5.39,5.39,0,0,0-1-1.69,5,5,0,0,0-1.55-1.16,4.57,4.57,0,0,0-2-.45,5.31,5.31,0,0,0-2.11.41,4.83,4.83,0,0,0-1.63,1.12,5.57,5.57,0,0,0-1.09,1.69,5.88,5.88,0,0,0-.45,2.09H212.1Z" transform="translate(-50 -4077.48)"/><path class="cls-1" d="M217.73,4086.87h4.18v2.94l0.08,0.08a7.41,7.41,0,0,1,2.63-2.62,7,7,0,0,1,3.6-.95,7.49,7.49,0,0,1,5.19,1.7,6.53,6.53,0,0,1,1.9,5.12v13.76h-4.42v-12.59a5.45,5.45,0,0,0-1-3.43,3.66,3.66,0,0,0-2.91-1.07,4.8,4.8,0,0,0-2,.41,4.36,4.36,0,0,0-1.51,1.12,5.29,5.29,0,0,0-1,1.69,6,6,0,0,0-.35,2.05v11.82h-4.42v-20Z" transform="translate(-50 -4077.48)"/><path class="cls-1" d="M234.88,4086.87h4.8l5.08,15.38h0.08l4.88-15.38h4.57l-7.17,20h-5Z" transform="translate(-50 -4077.48)"/><path class="cls-1" d="M255.16,4086.87H260l5.23,15h0.08l5.08-15H275L267.21,4108q-0.54,1.36-1.07,2.6a9.3,9.3,0,0,1-1.28,2.19,5.53,5.53,0,0,1-1.88,1.51,6.41,6.41,0,0,1-2.87.56,20.11,20.11,0,0,1-3.06-.23v-3.72l1,0.17a5.55,5.55,0,0,0,1,.1,3.6,3.6,0,0,0,1.28-.19,2.12,2.12,0,0,0,.83-0.56,3.51,3.51,0,0,0,.56-0.87,8.6,8.6,0,0,0,.43-1.16l0.5-1.55Z" transform="translate(-50 -4077.48)"/><path class="cls-1" d="M53.18,4098.56c0-3.81-3.18-4.07-3.18-4.07v-3.21s3.18-.26,3.18-4.15V4084c0-5.9,4.26-6.5,6.05-6.5,0.52,0,.86,0,0.86,0v2.77H59.57c-0.93,0-3.21.34-3.21,3.92v3.85a4.91,4.91,0,0,1-3,4.75v0.07a4.7,4.7,0,0,1,3,4.75v4.3c0,3.59,2.28,3.92,3.21,3.92h0.52v2.77a4.37,4.37,0,0,1-.86.07c-1.79,0-6.05-.6-6.05-6.54v-3.59Z" transform="translate(-50 -4077.48)"/><path class="cls-1" d="M108.16,4105.85c0.93,0,3.21-.34,3.21-3.92v-4.3a4.7,4.7,0,0,1,3-4.75v-0.07a4.91,4.91,0,0,1-3-4.75v-3.85c0-3.59-2.28-3.92-3.21-3.92h-0.52v-2.77s0.34,0,.86,0c1.79,0,6.05.6,6.05,6.5v3.14c0,3.89,3.18,4.15,3.18,4.15v3.21s-3.18.26-3.18,4.07v3.59c0,5.94-4.26,6.54-6.05,6.54a4.37,4.37,0,0,1-.86-0.07v-2.77h0.52Z" transform="translate(-50 -4077.48)"/><path class="cls-1" d="M93.36,4104.75H75.47a9.38,9.38,0,0,1-.84-18.72,8.21,8.21,0,0,1,14.78-.9,8.15,8.15,0,0,1,5.39,3.33A8.21,8.21,0,0,1,93.36,4104.75Zm-17.89-15.63a6.26,6.26,0,0,0,0,12.51H93.36a5.09,5.09,0,0,0,.4-10.16l-0.82-.06-0.41-.71a5.06,5.06,0,0,0-4.2-2.54l-1,0-0.38-.93a5.09,5.09,0,0,0-9.65.74l-0.3,1.24-1.28,0H75.47Z" transform="translate(-50 -4077.48)"/></svg>